<svg width="35" height="40" viewBox="0 0 35 40" fill="none" xmlns="http://www.w3.org/2000/svg">
<path d="M17.5 40C12.8698 40 8.79594 38.4972 5.27844 35.4915C1.75948 32.4844 0 28.4161 0 23.2866C0 20.0594 1.3125 16.5605 3.9375 12.7898C6.5625 9.01911 10.5365 4.94268 15.8594 0.56051C16.0781 0.390658 16.3333 0.254777 16.625 0.152866C16.9167 0.0509555 17.2083 0 17.5 0C17.7917 0 18.0833 0.0509555 18.375 0.152866C18.6667 0.254777 18.9219 0.390658 19.1406 0.56051C24.4635 4.94268 28.4375 9.01911 31.0625 12.7898C33.6875 16.5605 35 20.0594 35 23.2866C35 28.4161 33.2405 32.4844 29.7216 35.4915C26.2041 38.4972 22.1302 40 17.5 40ZM18.1016 33.8854C18.5391 33.8514 18.9131 33.6904 19.2238 33.4023C19.5329 33.1129 19.6875 32.7643 19.6875 32.3567C19.6875 31.8811 19.5234 31.4993 19.1953 31.2112C18.8672 30.9218 18.4479 30.7941 17.9375 30.828C16.4427 30.9299 14.8568 30.5481 13.1797 29.6825C11.5026 28.8156 10.4453 27.2442 10.0078 24.9682C9.9349 24.5945 9.74313 24.2887 9.4325 24.051C9.12333 23.8132 8.76823 23.6943 8.36719 23.6943C7.85677 23.6943 7.4375 23.8723 7.10938 24.2283C6.78125 24.5856 6.67187 25.0021 6.78125 25.4777C7.40104 28.569 8.85938 30.7771 11.1563 32.1019C13.4531 33.4268 15.7682 34.0212 18.1016 33.8854V33.8854Z" fill="inherit"/>
</svg>
