<svg width="40" height="40" viewBox="0 0 40 40" fill="none" xmlns="http://www.w3.org/2000/svg">
<path d="M18.7788 0C17.3036 1.37455 16.1203 3.03213 15.2997 4.87387C14.479 6.7156 14.0377 8.70376 14.0022 10.7197C13.9666 12.7357 14.3375 14.7382 15.0926 16.6077C15.8478 18.4773 16.9718 20.1756 18.3976 21.6013C19.8234 23.027 21.5218 24.151 23.3914 24.9061C25.2611 25.6613 27.2637 26.0321 29.2797 25.9965C31.2958 25.961 33.2841 25.5197 35.1259 24.6991C36.9677 23.8785 38.6254 22.6953 40 21.2202C39.3634 31.7001 30.6627 40 20.022 40C8.96296 40 0 31.0375 0 19.981C0 9.34087 8.3003 0.640609 18.7788 0Z" fill="inherit"/>
</svg>
