<svg width="40" height="40" viewBox="0 0 40 40" fill="none" xmlns="http://www.w3.org/2000/svg">
<path d="M10.3827 29.3654C10.5385 29.4208 10.6826 29.5083 10.8067 29.623C10.9308 29.7377 11.0324 29.8773 11.1058 30.0339C11.1792 30.1905 11.2228 30.3609 11.2343 30.5355C11.2458 30.7101 11.2249 30.8853 11.1728 31.0513L9.92263 35.0462C9.87554 35.2182 9.79637 35.3783 9.68985 35.5169C9.58332 35.6555 9.45164 35.7698 9.30268 35.8529C9.15372 35.9361 8.99055 35.9863 8.82293 36.0007C8.6553 36.0151 8.48668 35.9933 8.32714 35.9367C8.16761 35.8801 8.02044 35.7897 7.89445 35.6711C7.76846 35.5524 7.66623 35.4079 7.59389 35.2462C7.52156 35.0845 7.48059 34.9089 7.47345 34.7299C7.46631 34.551 7.49313 34.3723 7.55233 34.2046L8.80249 30.2097C8.90695 29.8745 9.13212 29.5973 9.42845 29.439C9.72479 29.2806 10.068 29.2542 10.3827 29.3654ZM17.8836 29.3654C18.0395 29.4208 18.1836 29.5083 18.3076 29.623C18.4317 29.7377 18.5333 29.8773 18.6067 30.0339C18.6801 30.1905 18.7238 30.3609 18.7353 30.5355C18.7468 30.7101 18.7259 30.8853 18.6737 31.0513L16.1734 39.0412C16.1263 39.2132 16.0472 39.3732 15.9406 39.5119C15.8341 39.6505 15.7024 39.7648 15.5535 39.8479C15.4045 39.931 15.2413 39.9813 15.0737 39.9957C14.9061 40.0101 14.7375 39.9883 14.5779 39.9317C14.4184 39.875 14.2712 39.7847 14.1452 39.666C14.0192 39.5474 13.917 39.4029 13.8447 39.2412C13.7723 39.0795 13.7314 38.9039 13.7242 38.7249C13.7171 38.5459 13.7439 38.3673 13.8031 38.1996L16.3034 30.2097C16.4079 29.8745 16.6331 29.5973 16.9294 29.439C17.2257 29.2806 17.569 29.2542 17.8836 29.3654ZM25.3846 29.3654C25.5404 29.4208 25.6845 29.5083 25.8086 29.623C25.9327 29.7377 26.0343 29.8773 26.1077 30.0339C26.181 30.1905 26.2247 30.3609 26.2362 30.5355C26.2477 30.7101 26.2268 30.8853 26.1747 31.0513L24.9245 35.0462C24.8774 35.2182 24.7983 35.3783 24.6917 35.5169C24.5852 35.6555 24.4535 35.7698 24.3046 35.8529C24.1556 35.9361 23.9924 35.9863 23.8248 36.0007C23.6572 36.0151 23.4886 35.9933 23.329 35.9367C23.1695 35.8801 23.0223 35.7897 22.8963 35.6711C22.7703 35.5524 22.6681 35.4079 22.5958 35.2462C22.5234 35.0845 22.4825 34.9089 22.4753 34.7299C22.4682 34.551 22.495 34.3723 22.5542 34.2046L23.8044 30.2097C23.9088 29.8745 24.134 29.5973 24.4303 29.439C24.7267 29.2806 25.0699 29.2542 25.3846 29.3654ZM32.8855 29.3654C33.0414 29.4208 33.1855 29.5083 33.3095 29.623C33.4336 29.7377 33.5352 29.8773 33.6086 30.0339C33.682 30.1905 33.7257 30.3609 33.7372 30.5355C33.7487 30.7101 33.7278 30.8853 33.6756 31.0513L31.1753 39.0412C31.1282 39.2132 31.049 39.3732 30.9425 39.5119C30.836 39.6505 30.7043 39.7648 30.5554 39.8479C30.4064 39.931 30.2432 39.9813 30.0756 39.9957C29.908 40.0101 29.7394 39.9883 29.5798 39.9317C29.4203 39.875 29.2731 39.7847 29.1471 39.666C29.0211 39.5474 28.9189 39.4029 28.8466 39.2412C28.7742 39.0795 28.7333 38.9039 28.7261 38.7249C28.719 38.5459 28.7458 38.3673 28.805 38.1996L31.3053 30.2097C31.4098 29.8745 31.6349 29.5973 31.9313 29.439C32.2276 29.2806 32.5709 29.2542 32.8855 29.3654ZM33.5031 10.7275C32.9839 7.93949 31.6409 5.40149 29.6706 3.48462C27.7003 1.56775 25.206 0.372557 22.5523 0.0737948C19.8987 -0.224968 17.2249 0.388368 14.9219 1.82413C12.6189 3.25988 10.8075 5.44276 9.75261 8.05358C8.56955 7.90841 7.37113 8.02197 6.23071 8.38732C5.09029 8.75266 4.03187 9.36209 3.12026 10.1783C2.20865 10.9945 1.46303 12.0003 0.929049 13.1342C0.395067 14.268 0.0839613 15.506 0.0147796 16.7724C-0.054402 18.0388 0.119796 19.3069 0.526709 20.499C0.933622 21.6912 1.56469 22.7823 2.38127 23.7057C3.19784 24.629 4.18275 25.3651 5.27569 25.8689C6.36863 26.3727 7.5466 26.6335 8.73748 26.6355H32.4905C34.3935 26.6378 36.2262 25.8696 37.6173 24.4864C39.0085 23.1032 39.8541 21.2085 39.9828 19.1861C40.1115 17.1637 39.5138 15.1647 38.3107 13.5942C37.1076 12.0236 35.389 10.9989 33.5031 10.7275Z" fill="inherit"/>
</svg>
