<svg width="40" height="40" viewBox="0 0 40 40" fill="none" xmlns="http://www.w3.org/2000/svg">
<path d="M36.8889 40L22.8889 26C21.7778 26.8889 20.5 27.5926 19.0556 28.1111C17.6111 28.6296 16.0741 28.8889 14.4444 28.8889C10.4074 28.8889 6.99111 27.4911 4.19556 24.6956C1.39852 21.8985 0 18.4815 0 14.4444C0 10.4074 1.39852 6.99037 4.19556 4.19333C6.99111 1.39778 10.4074 0 14.4444 0C18.4815 0 21.8985 1.39778 24.6956 4.19333C27.4911 6.99037 28.8889 10.4074 28.8889 14.4444C28.8889 16.0741 28.6296 17.6111 28.1111 19.0556C27.5926 20.5 26.8889 21.7778 26 22.8889L40 36.8889L36.8889 40ZM14.4444 24.4444C17.2222 24.4444 19.5837 23.4726 21.5289 21.5289C23.4726 19.5837 24.4444 17.2222 24.4444 14.4444C24.4444 11.6667 23.4726 9.30519 21.5289 7.36C19.5837 5.4163 17.2222 4.44444 14.4444 4.44444C11.6667 4.44444 9.30519 5.4163 7.36 7.36C5.4163 9.30519 4.44444 11.6667 4.44444 14.4444C4.44444 17.2222 5.4163 19.5837 7.36 21.5289C9.30519 23.4726 11.6667 24.4444 14.4444 24.4444Z" fill="inherit"/>
</svg>
