<svg width="40" height="40" viewBox="0 0 40 40" fill="none" xmlns="http://www.w3.org/2000/svg">
<path d="M13.2222 23.1111H7.95556C7.41877 21.0718 7.41877 18.9282 7.95556 16.8889H13.2222C13.0852 17.9205 13.011 18.9594 13 20C13.011 21.0406 13.0852 22.0795 13.2222 23.1111ZM9.24444 13.7778H13.7778C14.2962 11.8583 15.0266 10.0024 15.9556 8.24444C13.1208 9.21267 10.7353 11.1795 9.24444 13.7778ZM30.7556 13.7778C29.253 11.1807 26.8613 9.21519 24.0222 8.24444C24.964 9.99397 25.6879 11.8522 26.1778 13.7778M20 32.3778C21.3205 30.5014 22.3263 28.4223 22.9778 26.2222H17.0222C17.6737 28.4223 18.6795 30.5014 20 32.3778ZM20 7.6C18.6784 9.4838 17.6726 11.5704 17.0222 13.7778H22.9778C22.3274 11.5704 21.3216 9.4838 20 7.6ZM9.24444 26.2222C10.7446 28.8126 13.1268 30.7766 15.9556 31.7556C15.0266 29.9976 14.2962 28.1417 13.7778 26.2222M40 4.44444V35.5556C40 36.7343 39.5317 37.8648 38.6983 38.6983C37.8648 39.5317 36.7343 40 35.5556 40H4.44444C3.2657 40 2.13524 39.5317 1.30175 38.6983C0.468252 37.8648 0 36.7343 0 35.5556V4.44444C0 3.2657 0.468252 2.13524 1.30175 1.30175C2.13524 0.468252 3.2657 0 4.44444 0H35.5556C36.7343 0 37.8648 0.468252 38.6983 1.30175C39.5317 2.13524 40 3.2657 40 4.44444ZM35.5556 20C35.5556 16.9234 34.6432 13.9159 32.934 11.3578C31.2247 8.7997 28.7953 6.8059 25.9529 5.62854C23.1104 4.45118 19.9827 4.14313 16.9653 4.74334C13.9478 5.34355 11.176 6.82508 9.00056 9.00056C6.82508 11.176 5.34355 13.9478 4.74334 16.9653C4.14313 19.9827 4.45118 23.1104 5.62854 25.9529C6.8059 28.7953 8.7997 31.2247 11.3578 32.934C13.9159 34.6432 16.9234 35.5556 20 35.5556C24.1256 35.5556 28.0822 33.9167 30.9994 30.9994C33.9167 28.0822 35.5556 24.1256 35.5556 20ZM27 20C26.989 21.0406 26.9148 22.0795 26.7778 23.1111H32.0444C32.5812 21.0718 32.5812 18.9282 32.0444 16.8889H26.7778C26.9148 17.9205 26.989 18.9594 27 20ZM24.0222 31.7556C26.8583 30.7795 29.2484 28.8154 30.7556 26.2222H26.1778C25.6879 28.1478 24.964 30.006 24.0222 31.7556ZM16.3556 16.8889C16.0239 18.9497 16.0239 21.0503 16.3556 23.1111H23.6444C23.7966 22.0808 23.8783 21.0414 23.8889 20C23.8789 18.9586 23.7972 17.9191 23.6444 16.8889H16.3556Z" fill="inherit"/>
</svg>
