<svg width="40" height="40" viewBox="0 0 40 40" fill="none" xmlns="http://www.w3.org/2000/svg">
<path fill-rule="evenodd" clip-rule="evenodd" d="M17.0004 4C16.3091 3.99977 15.6389 4.23829 15.1032 4.67524C14.5675 5.11219 14.1991 5.72075 14.0604 6.398C14.008 6.65539 13.9054 6.89994 13.7585 7.11769C13.6116 7.33543 13.4232 7.52211 13.2041 7.66707C12.9851 7.81202 12.7396 7.91241 12.4817 7.9625C12.2239 8.01259 11.9587 8.0114 11.7013 7.959C11.4439 7.9066 11.1993 7.80402 10.9816 7.65711C10.7638 7.51021 10.5772 7.32185 10.4322 7.10279C10.2872 6.88374 10.1869 6.63828 10.1368 6.38043C10.0867 6.12258 10.0879 5.85739 10.1403 5.6C10.4052 4.30232 11.0328 3.10641 11.9502 2.15117C12.8677 1.19594 14.0373 0.520577 15.3233 0.203526C16.6092 -0.113524 17.9588 -0.0592522 19.2151 0.360039C20.4715 0.779331 21.5831 1.54644 22.4209 2.57226C23.2586 3.59808 23.7882 4.84053 23.948 6.15529C24.1079 7.47005 23.8914 8.80318 23.3238 9.99984C22.7562 11.1965 21.8607 12.2076 20.7414 12.9156C19.6221 13.6237 18.3249 13.9997 17.0004 14H6.00015C5.46971 14 4.96099 13.7893 4.5859 13.4142C4.21082 13.0391 4.0001 12.5304 4.0001 12C4.0001 11.4696 4.21082 10.9609 4.5859 10.5858C4.96099 10.2107 5.46971 10 6.00015 10H17.0004C17.7961 10 18.5592 9.68393 19.1218 9.12132C19.6844 8.55871 20.0005 7.79565 20.0005 7C20.0005 6.20435 19.6844 5.44129 19.1218 4.87868C18.5592 4.31607 17.7961 4 17.0004 4ZM33.0008 12C32.3095 11.9998 31.6393 12.2383 31.1036 12.6752C30.5679 13.1122 30.1995 13.7208 30.0608 14.398C30.0085 14.6554 29.906 14.9 29.7593 15.1178C29.6125 15.3356 29.4242 15.5223 29.2052 15.6674C28.9863 15.8124 28.7409 15.9129 28.4831 15.9631C28.2253 16.0133 27.9601 16.0123 27.7027 15.96C27.4453 15.9077 27.2007 15.8053 26.9829 15.6585C26.7651 15.5117 26.5784 15.3235 26.4333 15.1045C26.2883 14.8855 26.1878 14.6402 26.1376 14.3824C26.0873 14.1246 26.0884 13.8594 26.1407 13.602C26.4052 12.3041 27.0325 11.108 27.9498 10.1524C28.8671 9.19689 30.0367 8.52121 31.3227 8.20387C32.6087 7.88653 33.9584 7.94056 35.2149 8.35968C36.4714 8.77881 37.5832 9.54582 38.4212 10.5716C39.2591 11.5974 39.7888 12.8399 39.9488 14.1548C40.1087 15.4696 39.8923 16.8029 39.3247 17.9997C38.7571 19.1964 37.8616 20.2076 36.7422 20.9157C35.6228 21.6238 34.3254 21.9998 33.0008 22H2.00005C1.4696 22 0.960883 21.7893 0.585801 21.4142C0.210719 21.0391 0 20.5304 0 20C0 19.4696 0.210719 18.9609 0.585801 18.5858C0.960883 18.2107 1.4696 18 2.00005 18H33.0008C33.7965 18 34.5596 17.6839 35.1222 17.1213C35.6848 16.5587 36.0009 15.7956 36.0009 15C36.0009 14.2044 35.6848 13.4413 35.1222 12.8787C34.5596 12.3161 33.7965 12 33.0008 12ZM22.0606 33.602C22.1744 34.158 22.4437 34.6702 22.8371 35.0793C23.2304 35.4884 23.7317 35.7775 24.2828 35.9131C24.8339 36.0487 25.4122 36.0252 25.9504 35.8453C26.4887 35.6655 26.9649 35.3366 27.3238 34.897C27.6826 34.4573 27.9094 33.9249 27.9778 33.3615C28.0462 32.7981 27.9534 32.2269 27.7102 31.7142C27.4669 31.2014 27.0832 30.7682 26.6036 30.4648C26.124 30.1614 25.5682 30.0002 25.0006 30H12.0003C11.4699 30 10.9611 29.7893 10.5861 29.4142C10.211 29.0391 10.0003 28.5304 10.0003 28C10.0003 27.4696 10.211 26.9609 10.5861 26.5858C10.9611 26.2107 11.4699 26 12.0003 26H25.0006C26.3252 26.0002 27.6226 26.3762 28.742 27.0843C29.8614 27.7924 30.7569 28.8036 31.3245 30.0003C31.8921 31.1971 32.1085 32.5304 31.9486 33.8452C31.7886 35.1601 31.2589 36.4026 30.421 37.4284C29.583 38.4542 28.4712 39.2212 27.2147 39.6403C25.9581 40.0594 24.6085 40.1135 23.3225 39.7961C22.0365 39.4788 20.8669 38.8031 19.9496 37.8476C19.0323 36.892 18.405 35.6959 18.1405 34.398C18.0349 33.8782 18.1402 33.3377 18.4331 32.8955C18.726 32.4533 19.1827 32.1456 19.7025 32.04C20.2223 31.9344 20.7628 32.0397 21.205 32.3326C21.6473 32.6256 21.955 33.0822 22.0606 33.602Z" fill="inherit"/>
</svg>
